<svg width="49" height="48" viewBox="0 0 49 48" fill="none" xmlns="http://www.w3.org/2000/svg">
<mask id="mask0_1993_16947" style="mask-type:luminance" maskUnits="userSpaceOnUse" x="6" y="4" width="35" height="40">
<path fill-rule="evenodd" clip-rule="evenodd" d="M6.5 4.02344H40.6043V43.7304H6.5V4.02344Z" fill="white"/>
</mask>
<g mask="url(#mask0_1993_16947)">
<path fill-rule="evenodd" clip-rule="evenodd" d="M15.6461 7.02344C12.3321 7.02344 9.58014 9.70744 9.50214 13.0174V34.4554C9.43014 37.8574 12.1101 40.6574 15.4801 40.7314H31.6461C34.9841 40.6114 37.6261 37.8574 37.6041 34.4654V16.6794L28.3361 7.02344H15.6701H15.6461ZM15.6701 43.7314H15.4181C10.3941 43.6234 6.39414 39.4474 6.50214 34.4234V12.9814C6.62014 8.01944 10.7161 4.02344 15.6401 4.02344H15.6761H28.9741C29.3821 4.02344 29.7721 4.18944 30.0561 4.48344L40.1881 15.0374C40.4541 15.3154 40.6041 15.6894 40.6041 16.0754V34.4554C40.6361 39.4734 36.7241 43.5514 31.6981 43.7314H15.6701Z" fill="#3B434F"/>
</g>
<path fill-rule="evenodd" clip-rule="evenodd" d="M39.0952 17.968H33.5872C29.9252 17.958 26.9512 14.974 26.9512 11.318V5.5C26.9512 4.672 27.6232 4 28.4512 4C29.2792 4 29.9512 4.672 29.9512 5.5V11.318C29.9512 13.326 31.5832 14.962 33.5912 14.968H39.0952C39.9232 14.968 40.5952 15.64 40.5952 16.468C40.5952 17.296 39.9232 17.968 39.0952 17.968" fill="#3B434F"/>
<path fill-rule="evenodd" clip-rule="evenodd" d="M22.7832 33.4004C21.9552 33.4004 21.2832 32.7284 21.2832 31.9004V19.8184C21.2832 18.9904 21.9552 18.3184 22.7832 18.3184C23.6112 18.3184 24.2832 18.9904 24.2832 19.8184V31.9004C24.2832 32.7284 23.6112 33.4004 22.7832 33.4004" fill="#3B434F"/>
<path fill-rule="evenodd" clip-rule="evenodd" d="M18.0933 26.0285C17.7113 26.0285 17.3273 25.8825 17.0353 25.5905C16.4493 25.0065 16.4453 24.0585 17.0313 23.4705L21.7193 18.7585C22.2833 18.1925 23.2833 18.1925 23.8453 18.7585L28.5373 23.4705C29.1213 24.0585 29.1193 25.0065 28.5333 25.5905C27.9453 26.1745 26.9953 26.1745 26.4113 25.5865L22.7833 21.9425L19.1553 25.5865C18.8633 25.8825 18.4773 26.0285 18.0933 26.0285" fill="#3B434F"/>
</svg>
