<svg width="49" height="48" viewBox="0 0 49 48" fill="none" xmlns="http://www.w3.org/2000/svg">
<mask id="mask0_1993_16934" style="mask-type:luminance" maskUnits="userSpaceOnUse" x="4" y="4" width="41" height="40">
<path fill-rule="evenodd" clip-rule="evenodd" d="M4.5 4H44.4192V43.8996H4.5V4Z" fill="white"/>
</mask>
<g mask="url(#mask0_1993_16934)">
<path fill-rule="evenodd" clip-rule="evenodd" d="M15.8 7C10.758 7 7.5 10.454 7.5 15.798V32.102C7.5 37.448 10.758 40.9 15.8 40.9H33.1C38.154 40.9 41.42 37.448 41.42 32.102V15.798C41.42 10.454 38.154 7 33.1 7H15.8ZM33.1 43.9H15.8C9.04 43.9 4.5 39.158 4.5 32.102V15.798C4.5 8.742 9.04 4 15.8 4H33.1C39.87 4 44.42 8.742 44.42 15.798V32.102C44.42 39.158 39.87 43.9 33.1 43.9V43.9Z" fill="#3B434F"/>
</g>
<path fill-rule="evenodd" clip-rule="evenodd" d="M11.0625 34.3598C10.6905 34.3598 10.3205 34.2238 10.0305 33.9478C9.42851 33.3798 9.40451 32.4278 9.97451 31.8298L13.0305 28.6038C14.6485 26.8858 17.3785 26.8018 19.1045 28.4218L21.0205 30.3658C21.5545 30.9058 22.4225 30.9158 22.9585 30.3878C23.1605 30.1498 27.5165 24.8598 27.5165 24.8598C28.3445 23.8558 29.5125 23.2358 30.8105 23.1078C32.1105 22.9938 33.3725 23.3718 34.3785 24.1978C34.4645 24.2678 34.5425 24.3358 38.9345 28.8458C39.5125 29.4378 39.5025 30.3878 38.9085 30.9658C38.3165 31.5478 37.3645 31.5298 36.7865 30.9378C36.7865 30.9378 32.6885 26.7318 32.3965 26.4478C32.0865 26.1938 31.5885 26.0458 31.0985 26.0938C30.6005 26.1438 30.1525 26.3818 29.8345 26.7678C25.1865 32.4058 25.1305 32.4598 25.0545 32.5338C23.3385 34.2178 20.5685 34.1898 18.8825 32.4698C18.8825 32.4698 17.0225 30.5818 16.9905 30.5438C16.5285 30.1158 15.7045 30.1438 15.2105 30.6658L12.1505 33.8918C11.8545 34.2038 11.4585 34.3598 11.0625 34.3598V34.3598Z" fill="#3B434F"/>
<path fill-rule="evenodd" clip-rule="evenodd" d="M17.6154 16.2578C16.5094 16.2578 15.6094 17.1578 15.6094 18.2658C15.6094 19.3738 16.5094 20.2758 17.6174 20.2758C18.7254 20.2758 19.6274 19.3738 19.6274 18.2658C19.6274 17.1598 18.7254 16.2598 17.6154 16.2578M17.6174 23.2758C14.8554 23.2758 12.6094 21.0278 12.6094 18.2658C12.6094 15.5038 14.8554 13.2578 17.6174 13.2578C20.3814 13.2598 22.6274 15.5078 22.6274 18.2658C22.6274 21.0278 20.3794 23.2758 17.6174 23.2758" fill="#3B434F"/>
</svg>
