<svg width="25" height="24" viewBox="0 0 25 24" fill="none" xmlns="http://www.w3.org/2000/svg">
<path d="M23.9896 22.2934L18.0207 16.3245C19.6473 14.3352 20.4471 11.7967 20.2545 9.23419C20.062 6.67169 18.8919 4.28123 16.9863 2.55724C15.0807 0.833257 12.5854 -0.0923484 10.0165 -0.0281175C7.44757 0.0361135 5.00162 1.08527 3.18456 2.90233C1.36749 4.71939 0.31834 7.16535 0.254109 9.73426C0.189878 12.3032 1.11548 14.7985 2.83947 16.7041C4.56345 18.6097 6.95392 19.7798 9.51641 19.9723C12.0789 20.1649 14.6174 19.3651 16.6068 17.7385L22.5757 23.7074C22.7643 23.8896 23.0169 23.9904 23.2791 23.9881C23.5413 23.9858 23.7921 23.8806 23.9775 23.6952C24.1629 23.5098 24.268 23.259 24.2703 22.9968C24.2726 22.7346 24.1718 22.482 23.9896 22.2934ZM10.2828 18.0005C8.70061 18.0005 7.15392 17.5313 5.83834 16.6523C4.52277 15.7732 3.4974 14.5238 2.89191 13.062C2.28642 11.6003 2.12799 9.99174 2.43667 8.43992C2.74535 6.88809 3.50726 5.46265 4.62607 4.34384C5.74487 3.22504 7.17032 2.46312 8.72214 2.15444C10.274 1.84577 11.8825 2.00419 13.3443 2.60968C14.8061 3.21518 16.0555 4.24054 16.9345 5.55612C17.8135 6.87169 18.2827 8.41839 18.2827 10.0006C18.2803 12.1216 17.4367 14.155 15.937 15.6548C14.4372 17.1545 12.4038 17.9981 10.2828 18.0005Z" fill="#9EA8B7"/>
</svg>
