<svg width="65" height="65" viewBox="0 0 65 65" fill="none" xmlns="http://www.w3.org/2000/svg">
<path d="M55.3687 51.3247C54.9643 51.7291 54.4522 51.9178 53.94 51.9178C53.4278 51.9178 52.9157 51.7291 52.5113 51.3247L39.168 37.9814L40.5966 36.5527L42.0253 35.124L55.3687 48.4674C56.1504 49.2491 56.1504 50.543 55.3687 51.3247Z" fill="white"/>
<path opacity="0.4" d="M17.4405 25.0155L33.0752 40.6502C34.1264 41.7015 34.1264 43.3997 33.0752 44.451L30.6491 46.904C28.4656 49.0605 25.0152 49.0605 22.8587 46.904L11.1597 35.205C9.03011 33.0754 9.03011 29.5981 11.1597 27.4416L13.6127 24.9886C14.664 23.9642 16.3892 23.9642 17.4405 25.0155Z" fill="white"/>
<path d="M50.1122 27.4688L39.8418 37.7122C38.7636 38.7905 37.0384 38.7905 35.9601 37.7122L20.4063 22.1584C19.3281 21.0801 19.3281 19.3549 20.4063 18.2767L30.6767 8.00634C32.8062 5.87679 36.2836 5.87679 38.4401 8.00634L50.1391 19.7054C52.2417 21.8349 52.2417 25.2853 50.1122 27.4688Z" fill="white"/>
<path d="M21.5646 58.6304H5.39086C4.28566 58.6304 3.36914 57.7138 3.36914 56.6086C3.36914 55.5034 4.28566 54.5869 5.39086 54.5869H21.5646C22.6699 54.5869 23.5864 55.5034 23.5864 56.6086C23.5864 57.7138 22.6699 58.6304 21.5646 58.6304Z" fill="white"/>
</svg>
